<?xml version="1.0" standalone="no"?>
<!DOCTYPE svg PUBLIC "-//W3C//DTD SVG 20010904//EN"
 "http://www.w3.org/TR/2001/REC-SVG-20010904/DTD/svg10.dtd">
<svg version="1.0" xmlns="http://www.w3.org/2000/svg"
 width="360.000000pt" height="360.000000pt" viewBox="0 0 360.000000 360.000000"
 preserveAspectRatio="xMidYMid meet">
<metadata>
Created by potrace 1.14, written by Peter Selinger 2001-2017
</metadata>
<g transform="translate(0.000000,360.000000) scale(0.100000,-0.100000)"
fill="#000000" stroke="none">
<path d="M1335 3496 c-44 -21 -120 -78 -252 -191 -24 -20 -43 -32 -43 -26 0 6
12 45 26 87 14 42 23 78 21 81 -7 6 -156 -70 -237 -120 -220 -138 -421 -336
-565 -557 -16 -25 -53 -90 -81 -145 l-53 -99 37 -21 c59 -33 61 -43 62 -320 0
-142 4 -265 10 -285 39 -132 -14 -221 -229 -387 -10 -7 24 -157 61 -271 60
-188 201 -450 310 -577 287 -337 651 -553 1068 -636 98 -20 146 -23 325 -23
251 0 342 13 555 84 286 94 514 233 721 439 435 436 613 1044 484 1661 -94
453 -381 865 -783 1125 -40 26 -75 45 -77 43 -1 -1 -6 -61 -9 -133 -4 -71 -9
-157 -12 -190 l-6 -60 -121 -122 -121 -122 130 -195 129 -196 60 -19 c132 -41
143 -40 252 29 30 18 70 34 95 37 36 4 47 1 66 -20 13 -14 34 -54 47 -89 29
-82 53 -98 206 -134 l121 -29 -6 -109 c-4 -59 -13 -125 -19 -145 -17 -50 -47
-53 -90 -8 -17 18 -54 57 -81 86 -73 76 -125 80 -159 9 -14 -29 -43 -160 -62
-281 -9 -55 -93 -138 -164 -162 -126 -41 -286 11 -428 140 -91 83 -127 140
-148 238 -26 120 -48 127 -201 65 -95 -38 -116 -35 -126 17 -9 45 -39 75 -75
75 -20 0 -29 -10 -50 -60 -29 -66 -41 -72 -95 -44 -22 12 -39 35 -65 92 -49
107 -65 122 -127 122 -27 0 -101 -10 -163 -22 -102 -20 -115 -21 -129 -7 -14
14 -10 26 41 126 70 135 79 193 46 292 -12 36 -19 73 -15 83 11 36 77 21 239
-52 96 -44 173 -70 206 -70 58 0 128 93 129 170 0 79 -47 161 -84 147 -9 -4
-32 -32 -52 -64 -93 -147 -134 -132 -84 29 26 84 73 154 129 189 83 53 150 51
224 -7 54 -42 99 -47 149 -15 149 93 203 399 83 477 -32 21 -58 15 -220 -51
-158 -64 -184 -72 -255 -80 -112 -12 -173 -41 -325 -156 -60 -45 -144 -98
-185 -118 -68 -32 -83 -36 -160 -36 -108 0 -160 17 -160 51 0 63 48 109 195
190 146 80 195 140 195 238 0 60 -28 69 -105 32z m-160 -2136 c65 -46 103 -64
199 -94 117 -37 121 -38 227 -31 l107 7 168 -126 c167 -126 168 -127 216 -213
27 -48 53 -92 59 -99 7 -8 73 -12 226 -13 120 -1 218 -3 220 -5 1 -1 -17 -64
-42 -140 -27 -87 -51 -143 -63 -151 -10 -8 -60 -48 -110 -90 -89 -73 -92 -77
-92 -118 0 -25 -4 -37 -8 -29 -5 6 -46 26 -93 43 -91 34 -196 42 -252 20 -45
-18 -103 -13 -185 15 -167 56 -228 100 -299 216 -69 113 -131 188 -154 188
-33 0 -343 100 -862 279 -43 15 -78 31 -78 36 0 6 31 51 68 101 64 86 73 94
150 133 77 38 135 54 418 119 44 11 85 16 90 13 6 -3 46 -30 90 -61z"/>
</g>
</svg>
